<svg xmlns="http://www.w3.org/2000/svg" xmlns:xlink="http://www.w3.org/1999/xlink" width="100%" height="100%" fill-rule="evenodd" stroke-linecap="round" stroke-linejoin="round" stroke-miterlimit="1.5" clip-rule="evenodd" version="1.1" viewBox="0 0 24 24" xml:space="preserve"><path fill="none" stroke="#5a5a5a" stroke-width="2" d="M22,4.565c0,-1.404 -1.14,-2.544 -2.544,-2.544l-14.912,0c-1.404,0 -2.544,1.14 -2.544,2.544l0,1.73c0,1.404 1.14,2.544 2.544,2.544l14.912,0c1.404,0 2.544,-1.14 2.544,-2.544l0,-1.73Z"/><path fill="none" stroke="#5a5a5a" stroke-width="2" d="M22,15.63c0,-2.099 -1.704,-3.803 -3.803,-3.803l-12.394,0c-2.099,0 -3.803,1.704 -3.803,3.803l0,2.588c0,2.099 1.704,3.803 3.803,3.803l12.394,0c2.099,0 3.803,-1.704 3.803,-3.803l0,-2.588Z"/></svg>